<svg width="21" height="20" viewBox="0 0 21 20" fill="none" xmlns="http://www.w3.org/2000/svg">
<path d="M20.0216 19.092L10.4033 1.18918C10.2562 0.916107 9.81681 0.916107 9.66979 1.18918L0.0514165 19.092C-0.0196431 19.2239 -0.0167845 19.3846 0.0583591 19.5141C0.133503 19.6435 0.270313 19.723 0.41815 19.723H19.6549C19.8027 19.723 19.9395 19.6435 20.0147 19.5141C20.0898 19.3846 20.0927 19.2239 20.0216 19.092ZM9.61833 7.29904C8.61482 7.36933 7.67925 7.6865 6.86615 8.1927L9.61833 3.07462V7.29904ZM9.61833 8.1508V18.8495C6.90709 18.6296 4.76586 16.3171 4.76586 13.5004C4.76586 10.6837 6.90709 8.37081 9.61833 8.1508ZM10.4547 8.15043C13.169 8.36727 15.3137 10.6814 15.3137 13.5004C15.3137 16.3193 13.169 18.6331 10.4547 18.8499V8.15043ZM10.4547 7.29873V3.07462L13.2036 8.18662C12.391 7.68286 11.4567 7.36777 10.4547 7.29873ZM3.93647 13.6408C3.98573 15.8721 5.19201 17.8134 6.96886 18.8713H1.12385L3.93647 13.6408ZM13.1107 18.8713C14.8846 17.8151 16.0895 15.8785 16.1425 13.652L18.9492 18.8713H13.1107Z" fill="#B8B8B8"/>
</svg>
